<svg width="300" height="300" viewBox="0 0 406 415" fill="none" xmlns="http://www.w3.org/2000/svg">
<g opacity="0.3" filter="url(#filter0_d_14_264)">
<path d="M384.577 30.8459C376.079 30.8459 369.154 23.9214 369.154 15.423C369.154 6.92463 376.079 3.05176e-05 384.577 3.05176e-05C393.075 3.05176e-05 400 6.92463 400 15.423C400 23.9738 393.075 30.8459 384.577 30.8459ZM400 107.698C400 99.2 393.075 92.2755 384.577 92.2755C376.079 92.2755 369.154 99.2 369.154 107.698C369.154 116.197 376.079 123.121 384.577 123.121C393.075 123.121 400 116.249 400 107.698ZM400 199.974C400 191.475 393.075 184.551 384.577 184.551C376.079 184.551 369.154 191.475 369.154 199.974C369.154 208.472 376.079 215.397 384.577 215.397C393.075 215.449 400 208.525 400 199.974ZM400 292.302C400 283.803 393.075 276.879 384.577 276.879C376.079 276.879 369.154 283.803 369.154 292.302C369.154 300.8 376.079 307.725 384.577 307.725C393.075 307.725 400 300.8 400 292.302ZM400 384.577C400 376.079 393.075 369.154 384.577 369.154C376.079 369.154 369.154 376.079 369.154 384.577C369.154 393.075 376.079 400 384.577 400C393.075 400 400 393.075 400 384.577ZM307.724 15.423C307.724 6.92463 300.8 3.05176e-05 292.301 3.05176e-05C283.803 3.05176e-05 276.878 6.92463 276.878 15.423C276.878 23.9214 283.803 30.8459 292.301 30.8459C300.8 30.8459 307.724 23.9738 307.724 15.423ZM307.724 107.698C307.724 99.2 300.8 92.2755 292.301 92.2755C283.803 92.2755 276.878 99.2 276.878 107.698C276.878 116.197 283.803 123.121 292.301 123.121C300.8 123.121 307.724 116.249 307.724 107.698ZM307.724 199.974C307.724 191.475 300.8 184.551 292.301 184.551C283.803 184.551 276.878 191.475 276.878 199.974C276.878 208.472 283.803 215.397 292.301 215.397C300.8 215.449 307.724 208.525 307.724 199.974ZM307.724 292.302C307.724 283.803 300.8 276.879 292.301 276.879C283.803 276.879 276.878 283.803 276.878 292.302C276.878 300.8 283.803 307.725 292.301 307.725C300.8 307.725 307.724 300.8 307.724 292.302ZM307.724 384.577C307.724 376.079 300.8 369.154 292.301 369.154C283.803 369.154 276.878 376.079 276.878 384.577C276.878 393.075 283.803 400 292.301 400C300.8 400 307.724 393.075 307.724 384.577ZM215.397 15.423C215.397 6.92463 208.472 3.05176e-05 199.974 3.05176e-05C191.475 3.05176e-05 184.551 6.92463 184.551 15.423C184.551 23.9214 191.475 30.8459 199.974 30.8459C208.525 30.8459 215.397 23.9738 215.397 15.423ZM215.397 107.698C215.397 99.2 208.472 92.2755 199.974 92.2755C191.475 92.2755 184.551 99.2 184.551 107.698C184.551 116.197 191.475 123.121 199.974 123.121C208.525 123.121 215.397 116.249 215.397 107.698ZM215.397 199.974C215.397 191.475 208.472 184.551 199.974 184.551C191.475 184.551 184.551 191.475 184.551 199.974C184.551 208.472 191.475 215.397 199.974 215.397C208.525 215.449 215.397 208.525 215.397 199.974ZM215.397 292.302C215.397 283.803 208.472 276.879 199.974 276.879C191.475 276.879 184.551 283.803 184.551 292.302C184.551 300.8 191.475 307.725 199.974 307.725C208.525 307.725 215.397 300.8 215.397 292.302ZM215.397 384.577C215.397 376.079 208.472 369.154 199.974 369.154C191.475 369.154 184.551 376.079 184.551 384.577C184.551 393.075 191.475 400 199.974 400C208.525 400 215.397 393.075 215.397 384.577ZM123.121 15.423C123.121 6.92463 116.197 3.05176e-05 107.698 3.05176e-05C99.1998 3.05176e-05 92.2755 6.92463 92.2755 15.423C92.2755 23.9214 99.1998 30.8459 107.698 30.8459C116.249 30.8459 123.121 23.9738 123.121 15.423ZM123.121 107.698C123.121 99.2 116.197 92.2755 107.698 92.2755C99.1998 92.2755 92.2755 99.2 92.2755 107.698C92.2755 116.197 99.1998 123.121 107.698 123.121C116.249 123.121 123.121 116.249 123.121 107.698ZM123.121 199.974C123.121 191.475 116.197 184.551 107.698 184.551C99.1998 184.551 92.2755 191.475 92.2755 199.974C92.2755 208.472 99.1998 215.397 107.698 215.397C116.249 215.449 123.121 208.525 123.121 199.974ZM123.121 292.302C123.121 283.803 116.197 276.879 107.698 276.879C99.1998 276.879 92.2755 283.803 92.2755 292.302C92.2755 300.8 99.1998 307.725 107.698 307.725C116.249 307.725 123.121 300.8 123.121 292.302ZM123.121 384.577C123.121 376.079 116.197 369.154 107.698 369.154C99.1998 369.154 92.2755 376.079 92.2755 384.577C92.2755 393.075 99.1998 400 107.698 400C116.249 400 123.121 393.075 123.121 384.577ZM30.8459 15.423C30.8459 6.92463 23.9213 3.05176e-05 15.4229 3.05176e-05C6.92457 3.05176e-05 -3.05176e-05 6.92463 -3.05176e-05 15.423C-3.05176e-05 23.9214 6.92457 30.8459 15.4229 30.8459C23.9213 30.8459 30.8459 23.9738 30.8459 15.423ZM30.8459 107.698C30.8459 99.2 23.9213 92.2755 15.4229 92.2755C6.92457 92.2755 -3.05176e-05 99.2 -3.05176e-05 107.698C-3.05176e-05 116.197 6.92457 123.121 15.4229 123.121C23.9213 123.121 30.8459 116.249 30.8459 107.698ZM30.8459 199.974C30.8459 191.475 23.9213 184.551 15.4229 184.551C6.92457 184.551 -3.05176e-05 191.475 -3.05176e-05 199.974C-3.05176e-05 208.472 6.92457 215.397 15.4229 215.397C23.9213 215.397 30.8459 208.525 30.8459 199.974ZM30.8459 292.302C30.8459 283.803 23.9213 276.879 15.4229 276.879C6.92457 276.879 -3.05176e-05 283.803 -3.05176e-05 292.302C-3.05176e-05 300.8 6.92457 307.725 15.4229 307.725C23.9213 307.725 30.8459 300.8 30.8459 292.302ZM30.8459 384.577C30.8459 376.079 23.9213 369.154 15.4229 369.154C6.92457 369.154 -3.05176e-05 376.079 -3.05176e-05 384.577C-3.05176e-05 393.075 6.92457 400 15.4229 400C23.9213 400 30.8459 393.075 30.8459 384.577Z" fill="url(#paint0_linear_14_264)" fill-opacity="0.96" shape-rendering="crispEdges"/>
</g>
<defs>
<filter id="filter0_d_14_264" x="0" y="0" width="406" height="415" filterUnits="userSpaceOnUse" color-interpolation-filters="sRGB">
<feFlood flood-opacity="0" result="BackgroundImageFix"/>
<feColorMatrix in="SourceAlpha" type="matrix" values="0 0 0 0 0 0 0 0 0 0 0 0 0 0 0 0 0 0 127 0" result="hardAlpha"/>
<feOffset dx="6" dy="15"/>
<feComposite in2="hardAlpha" operator="out"/>
<feColorMatrix type="matrix" values="0 0 0 0 0 0 0 0 0 0 0 0 0 0 0 0 0 0 1 0"/>
<feBlend mode="normal" in2="BackgroundImageFix" result="effect1_dropShadow_14_264"/>
<feBlend mode="normal" in="SourceGraphic" in2="effect1_dropShadow_14_264" result="shape"/>
</filter>
<linearGradient id="paint0_linear_14_264" x1="18.1215" y1="400.121" x2="400.121" y2="0.121328" gradientUnits="userSpaceOnUse">
<stop stop-color="#08BBE4"/>
<stop offset="0.552083" stop-color="#FF0094"/>
<stop offset="1" stop-color="#3A91F8"/>
</linearGradient>
</defs>
</svg>
