<svg width="375" height="415" viewBox="0 0 375 415" fill="none" xmlns="http://www.w3.org/2000/svg">
<g opacity="0.15" filter="url(#filter0_d_14_264)">
<path d="M353.577 30.8459C345.079 30.8459 338.154 23.9214 338.154 15.423C338.154 6.92463 345.079 3.05176e-05 353.577 3.05176e-05C362.075 3.05176e-05 369 6.92463 369 15.423C369 23.9738 362.075 30.8459 353.577 30.8459ZM369 107.698C369 99.2 362.075 92.2755 353.577 92.2755C345.079 92.2755 338.154 99.2 338.154 107.698C338.154 116.197 345.079 123.121 353.577 123.121C362.075 123.121 369 116.249 369 107.698ZM369 199.974C369 191.475 362.075 184.551 353.577 184.551C345.079 184.551 338.154 191.475 338.154 199.974C338.154 208.472 345.079 215.397 353.577 215.397C362.075 215.449 369 208.525 369 199.974ZM369 292.302C369 283.803 362.075 276.879 353.577 276.879C345.079 276.879 338.154 283.803 338.154 292.302C338.154 300.8 345.079 307.725 353.577 307.725C362.075 307.725 369 300.8 369 292.302ZM369 384.577C369 376.079 362.075 369.154 353.577 369.154C345.079 369.154 338.154 376.079 338.154 384.577C338.154 393.075 345.079 400 353.577 400C362.075 400 369 393.075 369 384.577ZM276.724 15.423C276.724 6.92463 269.8 3.05176e-05 261.301 3.05176e-05C252.803 3.05176e-05 245.878 6.92463 245.878 15.423C245.878 23.9214 252.803 30.8459 261.301 30.8459C269.8 30.8459 276.724 23.9738 276.724 15.423ZM276.724 107.698C276.724 99.2 269.8 92.2755 261.301 92.2755C252.803 92.2755 245.878 99.2 245.878 107.698C245.878 116.197 252.803 123.121 261.301 123.121C269.8 123.121 276.724 116.249 276.724 107.698ZM276.724 199.974C276.724 191.475 269.8 184.551 261.301 184.551C252.803 184.551 245.878 191.475 245.878 199.974C245.878 208.472 252.803 215.397 261.301 215.397C269.8 215.449 276.724 208.525 276.724 199.974ZM276.724 292.302C276.724 283.803 269.8 276.879 261.301 276.879C252.803 276.879 245.878 283.803 245.878 292.302C245.878 300.8 252.803 307.725 261.301 307.725C269.8 307.725 276.724 300.8 276.724 292.302ZM276.724 384.577C276.724 376.079 269.8 369.154 261.301 369.154C252.803 369.154 245.878 376.079 245.878 384.577C245.878 393.075 252.803 400 261.301 400C269.8 400 276.724 393.075 276.724 384.577ZM184.397 15.423C184.397 6.92463 177.472 3.05176e-05 168.974 3.05176e-05C160.475 3.05176e-05 153.551 6.92463 153.551 15.423C153.551 23.9214 160.475 30.8459 168.974 30.8459C177.525 30.8459 184.397 23.9738 184.397 15.423ZM184.397 107.698C184.397 99.2 177.472 92.2755 168.974 92.2755C160.475 92.2755 153.551 99.2 153.551 107.698C153.551 116.197 160.475 123.121 168.974 123.121C177.525 123.121 184.397 116.249 184.397 107.698ZM184.397 199.974C184.397 191.475 177.472 184.551 168.974 184.551C160.475 184.551 153.551 191.475 153.551 199.974C153.551 208.472 160.475 215.397 168.974 215.397C177.525 215.449 184.397 208.525 184.397 199.974ZM184.397 292.302C184.397 283.803 177.472 276.879 168.974 276.879C160.475 276.879 153.551 283.803 153.551 292.302C153.551 300.8 160.475 307.725 168.974 307.725C177.525 307.725 184.397 300.8 184.397 292.302ZM184.397 384.577C184.397 376.079 177.472 369.154 168.974 369.154C160.475 369.154 153.551 376.079 153.551 384.577C153.551 393.075 160.475 400 168.974 400C177.525 400 184.397 393.075 184.397 384.577ZM92.1211 15.423C92.1211 6.92463 85.1965 3.05176e-05 76.6982 3.05176e-05C68.1998 3.05176e-05 61.2755 6.92463 61.2755 15.423C61.2755 23.9214 68.1998 30.8459 76.6982 30.8459C85.249 30.8459 92.1211 23.9738 92.1211 15.423ZM92.1211 107.698C92.1211 99.2 85.1965 92.2755 76.6982 92.2755C68.1998 92.2755 61.2755 99.2 61.2755 107.698C61.2755 116.197 68.1998 123.121 76.6982 123.121C85.249 123.121 92.1211 116.249 92.1211 107.698ZM92.1211 199.974C92.1211 191.475 85.1965 184.551 76.6982 184.551C68.1998 184.551 61.2755 191.475 61.2755 199.974C61.2755 208.472 68.1998 215.397 76.6982 215.397C85.249 215.449 92.1211 208.525 92.1211 199.974ZM92.1211 292.302C92.1211 283.803 85.1965 276.879 76.6982 276.879C68.1998 276.879 61.2755 283.803 61.2755 292.302C61.2755 300.8 68.1998 307.725 76.6982 307.725C85.249 307.725 92.1211 300.8 92.1211 292.302ZM92.1211 384.577C92.1211 376.079 85.1965 369.154 76.6982 369.154C68.1998 369.154 61.2755 376.079 61.2755 384.577C61.2755 393.075 68.1998 400 76.6982 400C85.249 400 92.1211 393.075 92.1211 384.577ZM-0.154104 15.423C-0.154104 6.92463 -7.07871 3.05176e-05 -15.5771 3.05176e-05C-24.0754 3.05176e-05 -31 6.92463 -31 15.423C-31 23.9214 -24.0754 30.8459 -15.5771 30.8459C-7.07871 30.8459 -0.154104 23.9738 -0.154104 15.423ZM-0.154104 107.698C-0.154104 99.2 -7.07871 92.2755 -15.5771 92.2755C-24.0754 92.2755 -31 99.2 -31 107.698C-31 116.197 -24.0754 123.121 -15.5771 123.121C-7.07871 123.121 -0.154104 116.249 -0.154104 107.698ZM-0.154104 199.974C-0.154104 191.475 -7.07871 184.551 -15.5771 184.551C-24.0754 184.551 -31 191.475 -31 199.974C-31 208.472 -24.0754 215.397 -15.5771 215.397C-7.07871 215.397 -0.154104 208.525 -0.154104 199.974ZM-0.154104 292.302C-0.154104 283.803 -7.07871 276.879 -15.5771 276.879C-24.0754 276.879 -31 283.803 -31 292.302C-31 300.8 -24.0754 307.725 -15.5771 307.725C-7.07871 307.725 -0.154104 300.8 -0.154104 292.302ZM-0.154104 384.577C-0.154104 376.079 -7.07871 369.154 -15.5771 369.154C-24.0754 369.154 -31 376.079 -31 384.577C-31 393.075 -24.0754 400 -15.5771 400C-7.07871 400 -0.154104 393.075 -0.154104 384.577Z" fill="url(#paint0_linear_14_264)" fill-opacity="0.96" shape-rendering="crispEdges"/>
</g>
<defs>
<filter id="filter0_d_14_264" x="-31" y="0" width="406" height="415" filterUnits="userSpaceOnUse" color-interpolation-filters="sRGB">
<feFlood flood-opacity="0" result="BackgroundImageFix"/>
<feColorMatrix in="SourceAlpha" type="matrix" values="0 0 0 0 0 0 0 0 0 0 0 0 0 0 0 0 0 0 127 0" result="hardAlpha"/>
<feOffset dx="6" dy="15"/>
<feComposite in2="hardAlpha" operator="out"/>
<feColorMatrix type="matrix" values="0 0 0 0 0 0 0 0 0 0 0 0 0 0 0 0 0 0 1 0"/>
<feBlend mode="normal" in2="BackgroundImageFix" result="effect1_dropShadow_14_264"/>
<feBlend mode="normal" in="SourceGraphic" in2="effect1_dropShadow_14_264" result="shape"/>
</filter>
<linearGradient id="paint0_linear_14_264" x1="-12.8785" y1="400.121" x2="369.121" y2="0.121328" gradientUnits="userSpaceOnUse">
<stop stop-color="#08BBE4"/>
<stop offset="0.552083" stop-color="#FF0094"/>
<stop offset="1" stop-color="#3A91F8"/>
</linearGradient>
</defs>
</svg>
