<svg width="306" height="315" viewBox="0 0 306 315" fill="none" xmlns="http://www.w3.org/2000/svg">
<g opacity="0.15" filter="url(#filter0_d_14_264)">
<path d="M288.433 23.1344C282.059 23.1344 276.866 17.941 276.866 11.5672C276.866 5.19347 282.059 2.28882e-05 288.433 2.28882e-05C294.807 2.28882e-05 300 5.19347 300 11.5672C300 17.9804 294.807 23.1344 288.433 23.1344ZM300 80.7738C300 74.4 294.807 69.2066 288.433 69.2066C282.059 69.2066 276.866 74.4 276.866 80.7738C276.866 87.1476 282.059 92.341 288.433 92.341C294.807 92.341 300 87.1869 300 80.7738ZM300 149.98C300 143.607 294.807 138.413 288.433 138.413C282.059 138.413 276.866 143.607 276.866 149.98C276.866 156.354 282.059 161.548 288.433 161.548C294.807 161.587 300 156.393 300 149.98ZM300 219.226C300 212.852 294.807 207.659 288.433 207.659C282.059 207.659 276.866 212.852 276.866 219.226C276.866 225.6 282.059 230.793 288.433 230.793C294.807 230.793 300 225.6 300 219.226ZM300 288.433C300 282.059 294.807 276.866 288.433 276.866C282.059 276.866 276.866 282.059 276.866 288.433C276.866 294.807 282.059 300 288.433 300C294.807 300 300 294.807 300 288.433ZM230.793 11.5672C230.793 5.19347 225.6 2.28882e-05 219.226 2.28882e-05C212.852 2.28882e-05 207.659 5.19347 207.659 11.5672C207.659 17.941 212.852 23.1344 219.226 23.1344C225.6 23.1344 230.793 17.9804 230.793 11.5672ZM230.793 80.7738C230.793 74.4 225.6 69.2066 219.226 69.2066C212.852 69.2066 207.659 74.4 207.659 80.7738C207.659 87.1476 212.852 92.341 219.226 92.341C225.6 92.341 230.793 87.1869 230.793 80.7738ZM230.793 149.98C230.793 143.607 225.6 138.413 219.226 138.413C212.852 138.413 207.659 143.607 207.659 149.98C207.659 156.354 212.852 161.548 219.226 161.548C225.6 161.587 230.793 156.393 230.793 149.98ZM230.793 219.226C230.793 212.852 225.6 207.659 219.226 207.659C212.852 207.659 207.659 212.852 207.659 219.226C207.659 225.6 212.852 230.793 219.226 230.793C225.6 230.793 230.793 225.6 230.793 219.226ZM230.793 288.433C230.793 282.059 225.6 276.866 219.226 276.866C212.852 276.866 207.659 282.059 207.659 288.433C207.659 294.807 212.852 300 219.226 300C225.6 300 230.793 294.807 230.793 288.433ZM161.548 11.5672C161.548 5.19347 156.354 2.28882e-05 149.98 2.28882e-05C143.607 2.28882e-05 138.413 5.19347 138.413 11.5672C138.413 17.941 143.607 23.1344 149.98 23.1344C156.393 23.1344 161.548 17.9804 161.548 11.5672ZM161.548 80.7738C161.548 74.4 156.354 69.2066 149.98 69.2066C143.607 69.2066 138.413 74.4 138.413 80.7738C138.413 87.1476 143.607 92.341 149.98 92.341C156.393 92.341 161.548 87.1869 161.548 80.7738ZM161.548 149.98C161.548 143.607 156.354 138.413 149.98 138.413C143.607 138.413 138.413 143.607 138.413 149.98C138.413 156.354 143.607 161.548 149.98 161.548C156.393 161.587 161.548 156.393 161.548 149.98ZM161.548 219.226C161.548 212.852 156.354 207.659 149.98 207.659C143.607 207.659 138.413 212.852 138.413 219.226C138.413 225.6 143.607 230.793 149.98 230.793C156.393 230.793 161.548 225.6 161.548 219.226ZM161.548 288.433C161.548 282.059 156.354 276.866 149.98 276.866C143.607 276.866 138.413 282.059 138.413 288.433C138.413 294.807 143.607 300 149.98 300C156.393 300 161.548 294.807 161.548 288.433ZM92.3408 11.5672C92.3408 5.19347 87.1474 2.28882e-05 80.7736 2.28882e-05C74.3999 2.28882e-05 69.2066 5.19347 69.2066 11.5672C69.2066 17.941 74.3999 23.1344 80.7736 23.1344C87.1867 23.1344 92.3408 17.9804 92.3408 11.5672ZM92.3408 80.7738C92.3408 74.4 87.1474 69.2066 80.7736 69.2066C74.3999 69.2066 69.2066 74.4 69.2066 80.7738C69.2066 87.1476 74.3999 92.341 80.7736 92.341C87.1867 92.341 92.3408 87.1869 92.3408 80.7738ZM92.3408 149.98C92.3408 143.607 87.1474 138.413 80.7736 138.413C74.3999 138.413 69.2066 143.607 69.2066 149.98C69.2066 156.354 74.3999 161.548 80.7736 161.548C87.1867 161.587 92.3408 156.393 92.3408 149.98ZM92.3408 219.226C92.3408 212.852 87.1474 207.659 80.7736 207.659C74.3999 207.659 69.2066 212.852 69.2066 219.226C69.2066 225.6 74.3999 230.793 80.7736 230.793C87.1867 230.793 92.3408 225.6 92.3408 219.226ZM92.3408 288.433C92.3408 282.059 87.1474 276.866 80.7736 276.866C74.3999 276.866 69.2066 282.059 69.2066 288.433C69.2066 294.807 74.3999 300 80.7736 300C87.1867 300 92.3408 294.807 92.3408 288.433ZM23.1344 11.5672C23.1344 5.19347 17.941 2.28882e-05 11.5672 2.28882e-05C5.19343 2.28882e-05 -2.28882e-05 5.19347 -2.28882e-05 11.5672C-2.28882e-05 17.941 5.19343 23.1344 11.5672 23.1344C17.941 23.1344 23.1344 17.9804 23.1344 11.5672ZM23.1344 80.7738C23.1344 74.4 17.941 69.2066 11.5672 69.2066C5.19343 69.2066 -2.28882e-05 74.4 -2.28882e-05 80.7738C-2.28882e-05 87.1476 5.19343 92.341 11.5672 92.341C17.941 92.341 23.1344 87.1869 23.1344 80.7738ZM23.1344 149.98C23.1344 143.607 17.941 138.413 11.5672 138.413C5.19343 138.413 -2.28882e-05 143.607 -2.28882e-05 149.98C-2.28882e-05 156.354 5.19343 161.548 11.5672 161.548C17.941 161.548 23.1344 156.393 23.1344 149.98ZM23.1344 219.226C23.1344 212.852 17.941 207.659 11.5672 207.659C5.19343 207.659 -2.28882e-05 212.852 -2.28882e-05 219.226C-2.28882e-05 225.6 5.19343 230.793 11.5672 230.793C17.941 230.793 23.1344 225.6 23.1344 219.226ZM23.1344 288.433C23.1344 282.059 17.941 276.866 11.5672 276.866C5.19343 276.866 -2.28882e-05 282.059 -2.28882e-05 288.433C-2.28882e-05 294.807 5.19343 300 11.5672 300C17.941 300 23.1344 294.807 23.1344 288.433Z" fill="url(#paint0_linear_14_264)" fill-opacity="0.96" shape-rendering="crispEdges"/>
</g>
<defs>
<filter id="filter0_d_14_264" x="0" y="0" width="306" height="315" filterUnits="userSpaceOnUse" color-interpolation-filters="sRGB">
<feFlood flood-opacity="0" result="BackgroundImageFix"/>
<feColorMatrix in="SourceAlpha" type="matrix" values="0 0 0 0 0 0 0 0 0 0 0 0 0 0 0 0 0 0 127 0" result="hardAlpha"/>
<feOffset dx="6" dy="15"/>
<feComposite in2="hardAlpha" operator="out"/>
<feColorMatrix type="matrix" values="0 0 0 0 0 0 0 0 0 0 0 0 0 0 0 0 0 0 1 0"/>
<feBlend mode="normal" in2="BackgroundImageFix" result="effect1_dropShadow_14_264"/>
<feBlend mode="normal" in="SourceGraphic" in2="effect1_dropShadow_14_264" result="shape"/>
</filter>
<linearGradient id="paint0_linear_14_264" x1="13.5911" y1="300.091" x2="300.091" y2="0.0909962" gradientUnits="userSpaceOnUse">
<stop stop-color="#08BBE4"/>
<stop offset="0.552083" stop-color="#FF0094"/>
<stop offset="1" stop-color="#3A91F8"/>
</linearGradient>
</defs>
</svg>
